<?xml version="1.0" encoding="UTF-8"?>
<svg id="_レイヤー_1" data-name="レイヤー 1" xmlns="http://www.w3.org/2000/svg" width="45" height="45" viewBox="0 0 100 100">
  <defs>
    <style>
      .cls-1 {
        fill: none;
      }

      .cls-2 {
        fill: #f7e400;
      }

      .cls-3 {
        fill: #09d2fe;
      }

      .cls-4 {
        fill: #718bd9;
      }
    </style>
  </defs>
  <rect class="cls-1" x="0" width="12.5" height="12.5"/>
  <rect class="cls-1" x="12.5" width="12.5" height="12.5"/>
  <rect class="cls-2" x="25" width="12.5" height="12.5"/>
  <rect class="cls-1" x="37.5" width="12.5" height="12.5"/>
  <rect class="cls-1" x="50" width="12.5" height="12.5"/>
  <rect class="cls-2" x="62.5" width="12.5" height="12.5"/>
  <rect class="cls-1" x="75" width="12.5" height="12.5"/>
  <rect class="cls-1" x="87.5" width="12.5" height="12.5"/>
  <rect class="cls-1" x="0" y="12.5" width="12.5" height="12.5"/>
  <rect class="cls-1" x="12.5" y="12.5" width="12.5" height="12.5"/>
  <rect class="cls-2" x="25" y="12.5" width="12.5" height="12.5"/>
  <rect class="cls-2" x="37.5" y="12.5" width="12.5" height="12.5"/>
  <rect class="cls-2" x="50" y="12.5" width="12.5" height="12.5"/>
  <rect class="cls-2" x="62.5" y="12.5" width="12.5" height="12.5"/>
  <rect class="cls-1" x="75" y="12.5" width="12.5" height="12.5"/>
  <rect class="cls-1" x="87.5" y="12.5" width="12.5" height="12.5"/>
  <rect class="cls-1" x="0" y="25" width="12.5" height="12.5"/>
  <rect class="cls-1" x="12.5" y="25" width="12.5" height="12.5"/>
  <rect class="cls-2" x="25" y="25" width="12.5" height="12.5"/>
  <rect class="cls-1" x="37.5" y="25" width="12.5" height="12.5"/>
  <rect class="cls-1" x="50" y="25" width="12.5" height="12.5"/>
  <rect class="cls-2" x="62.5" y="25" width="12.5" height="12.5"/>
  <rect class="cls-1" x="75" y="25" width="12.5" height="12.5"/>
  <rect class="cls-1" x="87.5" y="25" width="12.5" height="12.5"/>
  <rect class="cls-1" x="0" y="37.5" width="12.5" height="12.5"/>
  <rect class="cls-3" x="12.5" y="37.5" width="12.5" height="12.5"/>
  <rect class="cls-1" x="25" y="37.5" width="12.5" height="12.5"/>
  <rect class="cls-1" x="37.5" y="37.5" width="12.5" height="12.5"/>
  <rect class="cls-1" x="50" y="37.5" width="12.5" height="12.5"/>
  <rect class="cls-1" x="62.5" y="37.5" width="12.5" height="12.5"/>
  <rect class="cls-3" x="75" y="37.5" width="12.5" height="12.5"/>
  <rect class="cls-1" x="87.5" y="37.5" width="12.5" height="12.5"/>
  <rect class="cls-1" x="0" y="50" width="12.5" height="12.5"/>
  <rect class="cls-3" x="12.5" y="50" width="12.5" height="12.5"/>
  <rect class="cls-4" x="25" y="50" width="12.5" height="12.5"/>
  <rect class="cls-1" x="37.5" y="50" width="12.5" height="12.5"/>
  <rect class="cls-1" x="50" y="50" width="12.5" height="12.5"/>
  <rect class="cls-4" x="62.5" y="50" width="12.5" height="12.5"/>
  <rect class="cls-3" x="75" y="50" width="12.5" height="12.5"/>
  <rect class="cls-1" x="87.5" y="50" width="12.5" height="12.5"/>
  <rect class="cls-1" x="0" y="62.5" width="12.5" height="12.5"/>
  <rect class="cls-4" x="12.5" y="62.5" width="12.5" height="12.5"/>
  <rect class="cls-1" x="25" y="62.5" width="12.5" height="12.5"/>
  <rect class="cls-4" x="37.5" y="62.5" width="12.5" height="12.5"/>
  <rect class="cls-4" x="50" y="62.5" width="12.5" height="12.5"/>
  <rect class="cls-1" x="62.5" y="62.5" width="12.5" height="12.5"/>
  <rect class="cls-4" x="75" y="62.5" width="12.5" height="12.5"/>
  <rect class="cls-1" x="87.5" y="62.5" width="12.5" height="12.5"/>
  <rect class="cls-4" x="0" y="75" width="12.5" height="12.5"/>
  <rect class="cls-3" x="12.5" y="75" width="12.5" height="12.5"/>
  <rect class="cls-1" x="25" y="75" width="12.5" height="12.5"/>
  <rect class="cls-1" x="37.5" y="75" width="12.5" height="12.5"/>
  <rect class="cls-1" x="50" y="75" width="12.5" height="12.5"/>
  <rect class="cls-1" x="62.5" y="75" width="12.5" height="12.5"/>
  <rect class="cls-3" x="75" y="75" width="12.5" height="12.5"/>
  <rect class="cls-4" x="87.5" y="75" width="12.5" height="12.5"/>
  <rect class="cls-4" x="0" y="87.5" width="12.5" height="12.5"/>
  <rect class="cls-1" x="12.5" y="87.5" width="12.5" height="12.5"/>
  <rect class="cls-3" x="25" y="87.5" width="12.5" height="12.5"/>
  <rect class="cls-3" x="37.5" y="87.5" width="12.5" height="12.5"/>
  <rect class="cls-3" x="50" y="87.5" width="12.5" height="12.5"/>
  <rect class="cls-3" x="62.5" y="87.5" width="12.5" height="12.5"/>
  <rect class="cls-1" x="75" y="87.5" width="12.5" height="12.5"/>
  <rect class="cls-4" x="87.5" y="87.5" width="12.5" height="12.5"/>
</svg>